# xmcd
#
# Track frame offsets: 
#        150
#        2064
#        16411
#        20333
#        27225
#        43083
#        45435
#        59791
#        66332
#        82598
#        96886
#        121384
#        123717
#        139349
#        147907
#        162649
#        165108
#        173299
#        200580
#        212010
#        220999
#        227127
#        240493
#        254322
#        255950
#        265297
#        268399
#        274865
#        283767
#        300000
#
# Disc length: 4092 seconds
#
# Revision: 0
# Processed by: cddbd v1.5.2PL0 Copyright (c) Steve Scherf et al.
# Submitted via: ExactAudioCopyFreeDBPlugin 1.0
#
DISCID=ab0ffa1e
DTITLE=Marty Stuart - The Pilgrim
DYEAR=2019
DGENRE=Country
TTITLE0=Intro
TTITLE1=Sometimes The Pleasure Is Worth The Pain
TTITLE2=The Pilgrim (Act I)
TTITLE3=Harlan County
TTITLE4=Reasons
TTITLE5=Love Can Go To...
TTITLE6=Red, Red Wine And Cheatin' Songs
TTITLE7=Truckstop
TTITLE8=Hobo's Prayer
TTITLE9=Goin' Nowhere Fast
TTITLE10=The Observations Of A Crow
TTITLE11=Intermission
TTITLE12=The Greatest Love Of All Time
TTITLE13=The Greatest Love Of All Time Reprise
TTITLE14=Draggin' Around These Chains Of Love
TTITLE15=The Pilgrim (Act II)
TTITLE16=Redemption
TTITLE17=The Pilgrim (Act III)
TTITLE18=Outro (Sir Galahad)
TTITLE19=Mr. John Henry, Steel Driving Man
TTITLE20=The Pilgrim (Act IV)
TTITLE21=That'll Be All Right With Me
TTITLE22=Been Lonely Too Long
TTITLE23=I Think We're In Texas
TTITLE24=Shout Little Lulie
TTITLE25=Call And Response
TTITLE26=Evelina
TTITLE27=Tennessee Wagoner
TTITLE28=Even Trains Have To Cry
TTITLE29=The Vanishing
EXTD=
EXTT0=
EXTT1=
EXTT2=
EXTT3=
EXTT4=
EXTT5=
EXTT6=
EXTT7=
EXTT8=
EXTT9=
EXTT10=
EXTT11=
EXTT12=
EXTT13=
EXTT14=
EXTT15=
EXTT16=
EXTT17=
EXTT18=
EXTT19=
EXTT20=
EXTT21=
EXTT22=
EXTT23=
EXTT24=
EXTT25=
EXTT26=
EXTT27=
EXTT28=
EXTT29=
PLAYORDER=
